<svg width="101" height="26" viewBox="0 0 101 26" fill="none" xmlns="http://www.w3.org/2000/svg">
<path d="M1.00514 3.80928H3.26422L6.28959 11.1936H6.40901L9.43438 3.80928H11.6935V14H9.92202V6.99885H9.82748L7.0111 13.9701H5.6875L2.87112 6.98393H2.77657V14H1.00514V3.80928ZM14.7437 16.8661C14.4982 16.8661 14.271 16.8462 14.062 16.8064C13.8563 16.7699 13.6921 16.7268 13.5694 16.6771L13.9874 15.2738C14.2494 15.3501 14.4833 15.3866 14.689 15.3833C14.8946 15.38 15.0754 15.3153 15.2313 15.1892C15.3906 15.0665 15.5249 14.8608 15.6344 14.5722L15.7887 14.1592L13.0171 6.35696H14.9278L16.6893 12.129H16.7689L18.5354 6.35696H20.4511L17.3909 14.9255C17.2483 15.3302 17.0592 15.6769 16.8236 15.9655C16.5881 16.2574 16.2995 16.4797 15.9578 16.6323C15.6195 16.7882 15.2148 16.8661 14.7437 16.8661ZM21.7772 14V3.80928H25.5987C26.3816 3.80928 27.0384 3.95524 27.5692 4.24716C28.1033 4.53908 28.5063 4.94047 28.7783 5.45134C29.0537 5.95888 29.1913 6.53609 29.1913 7.18296C29.1913 7.83647 29.0537 8.417 28.7783 8.92454C28.503 9.43209 28.0966 9.83182 27.5592 10.1237C27.0218 10.4123 26.36 10.5567 25.5738 10.5567H23.0411V9.03899H25.325C25.7828 9.03899 26.1577 8.95937 26.4496 8.80014C26.7415 8.64091 26.9571 8.42197 27.0965 8.14332C27.2391 7.86467 27.3104 7.54455 27.3104 7.18296C27.3104 6.82138 27.2391 6.50292 27.0965 6.22758C26.9571 5.95225 26.7399 5.73828 26.4446 5.58569C26.1527 5.42978 25.7762 5.35182 25.3151 5.35182H23.6233V14H21.7772ZM30.7152 14V6.35696H32.4618V7.6308H32.5414C32.6807 7.1896 32.9196 6.84958 33.2579 6.61073C33.5996 6.36857 33.9894 6.24749 34.4273 6.24749C34.5268 6.24749 34.6379 6.25246 34.7607 6.26242C34.8867 6.26905 34.9912 6.28066 35.0741 6.29725V7.95423C34.9978 7.9277 34.8768 7.90448 34.7109 7.88457C34.5484 7.86135 34.3908 7.84974 34.2382 7.84974C33.9098 7.84974 33.6145 7.92106 33.3525 8.06371C33.0937 8.20303 32.8897 8.39709 32.7404 8.64589C32.5912 8.89469 32.5165 9.18163 32.5165 9.50673V14H30.7152ZM36.2709 14V6.35696H38.0721V14H36.2709ZM37.1765 5.2722C36.8912 5.2722 36.6457 5.17766 36.44 4.98858C36.2344 4.79617 36.1315 4.56562 36.1315 4.29692C36.1315 4.0249 36.2344 3.79435 36.44 3.60526C36.6457 3.41286 36.8912 3.31666 37.1765 3.31666C37.4651 3.31666 37.7106 3.41286 37.9129 3.60526C38.1186 3.79435 38.2214 4.0249 38.2214 4.29692C38.2214 4.56562 38.1186 4.79617 37.9129 4.98858C37.7106 5.17766 37.4651 5.2722 37.1765 5.2722ZM41.7257 9.52166V14H39.9244V6.35696H41.6461V7.65568H41.7357C41.9115 7.22775 42.1918 6.88773 42.5766 6.63561C42.9647 6.3835 43.4441 6.25744 44.0147 6.25744C44.5421 6.25744 45.0016 6.37023 45.393 6.5958C45.7878 6.82138 46.0929 7.14813 46.3086 7.57606C46.5275 8.00399 46.6353 8.52315 46.632 9.13353V14H44.8307V9.41218C44.8307 8.90132 44.698 8.50159 44.4326 8.21298C44.1706 7.92438 43.8073 7.78008 43.3429 7.78008C43.0278 7.78008 42.7475 7.84974 42.502 7.98907C42.2598 8.12508 42.0691 8.32245 41.9297 8.5812C41.7937 8.83995 41.7257 9.15344 41.7257 9.52166ZM52.2797 6.35696V7.75022H47.8859V6.35696H52.2797ZM48.9707 4.52581H50.772V11.7011C50.772 11.9433 50.8085 12.129 50.8815 12.2584C50.9578 12.3845 51.0573 12.4707 51.18 12.5172C51.3028 12.5636 51.4388 12.5868 51.588 12.5868C51.7008 12.5868 51.8037 12.5785 51.8966 12.562C51.9928 12.5454 52.0657 12.5304 52.1155 12.5172L52.419 13.9254C52.3228 13.9585 52.1852 13.995 52.006 14.0348C51.8302 14.0746 51.6146 14.0979 51.3591 14.1045C50.908 14.1178 50.5016 14.0498 50.14 13.9005C49.7785 13.7479 49.4915 13.5124 49.2792 13.1939C49.0702 12.8754 48.9674 12.4774 48.9707 11.9997V4.52581ZM59.404 6.61073C59.3576 6.17617 59.1618 5.8378 58.8168 5.59564C58.4752 5.35348 58.0306 5.2324 57.4833 5.2324C57.0985 5.2324 56.7684 5.29045 56.4931 5.40655C56.2177 5.52266 56.0071 5.68023 55.8611 5.87927C55.7152 6.07831 55.6405 6.30554 55.6372 6.56097C55.6372 6.77328 55.6853 6.95739 55.7815 7.1133C55.881 7.26921 56.0154 7.40191 56.1846 7.51138C56.3537 7.61753 56.5412 7.7071 56.7468 7.78008C56.9525 7.85306 57.1598 7.91443 57.3688 7.96419L58.3242 8.20303C58.709 8.2926 59.0789 8.41368 59.4339 8.56628C59.7921 8.71887 60.1122 8.91127 60.3942 9.14348C60.6795 9.37569 60.9051 9.65601 61.0709 9.98442C61.2368 10.3128 61.3197 10.6976 61.3197 11.1388C61.3197 11.7359 61.1671 12.2617 60.8619 12.7162C60.5568 13.1674 60.1156 13.5207 59.5383 13.7761C58.9645 14.0282 58.2695 14.1543 57.4534 14.1543C56.6606 14.1543 55.9723 14.0315 55.3884 13.786C54.8079 13.5406 54.3534 13.1823 54.025 12.7112C53.6999 12.2402 53.5241 11.6663 53.4976 10.9896H55.3138C55.3403 11.3445 55.4498 11.6397 55.6422 11.8753C55.8346 12.1108 56.085 12.2866 56.3936 12.4027C56.7054 12.5188 57.0537 12.5769 57.4385 12.5769C57.8399 12.5769 58.1915 12.5172 58.4934 12.3977C58.7986 12.275 59.0374 12.1058 59.2099 11.8902C59.3824 11.6713 59.4703 11.4158 59.4737 11.1239C59.4703 10.8585 59.3924 10.6396 59.2398 10.4671C59.0872 10.2913 58.8732 10.1453 58.5979 10.0292C58.3259 9.90978 58.0074 9.80363 57.6425 9.71074L56.4831 9.41218C55.6438 9.19656 54.9804 8.86981 54.4927 8.43193C54.0084 7.99073 53.7663 7.40522 53.7663 6.67542C53.7663 6.07499 53.9288 5.5492 54.2539 5.09805C54.5823 4.64689 55.0285 4.29692 55.5924 4.04812C56.1564 3.79601 56.7949 3.66995 57.5082 3.66995C58.2313 3.66995 58.8649 3.79601 59.409 4.04812C59.9563 4.29692 60.3859 4.64358 60.6977 5.08809C61.0096 5.52929 61.1705 6.03684 61.1804 6.61073H59.404ZM66.2198 14.1493C65.4734 14.1493 64.8265 13.9851 64.2792 13.6567C63.7318 13.3282 63.3072 12.8688 63.0053 12.2783C62.7068 11.6878 62.5575 10.9979 62.5575 10.2083C62.5575 9.41882 62.7068 8.72716 63.0053 8.13337C63.3072 7.53957 63.7318 7.07847 64.2792 6.75006C64.8265 6.42165 65.4734 6.25744 66.2198 6.25744C66.9662 6.25744 67.6131 6.42165 68.1604 6.75006C68.7078 7.07847 69.1307 7.53957 69.4293 8.13337C69.7311 8.72716 69.8821 9.41882 69.8821 10.2083C69.8821 10.9979 69.7311 11.6878 69.4293 12.2783C69.1307 12.8688 68.7078 13.3282 68.1604 13.6567C67.6131 13.9851 66.9662 14.1493 66.2198 14.1493ZM66.2297 12.7063C66.6344 12.7063 66.9728 12.5951 67.2448 12.3729C67.5168 12.1473 67.7192 11.8454 67.8519 11.4672C67.9879 11.0891 68.0559 10.6678 68.0559 10.2034C68.0559 9.73562 67.9879 9.31267 67.8519 8.93449C67.7192 8.55301 67.5168 8.24947 67.2448 8.0239C66.9728 7.79832 66.6344 7.68553 66.2297 7.68553C65.8151 7.68553 65.4701 7.79832 65.1947 8.0239C64.9227 8.24947 64.7187 8.55301 64.5827 8.93449C64.45 9.31267 64.3837 9.73562 64.3837 10.2034C64.3837 10.6678 64.45 11.0891 64.5827 11.4672C64.7187 11.8454 64.9227 12.1473 65.1947 12.3729C65.4701 12.5951 65.8151 12.7063 66.2297 12.7063ZM76.2824 10.7855V6.35696H78.0837V14H76.3371V12.6416H76.2575C76.085 13.0695 75.8014 13.4195 75.4066 13.6915C75.0152 13.9635 74.5325 14.0995 73.9586 14.0995C73.4577 14.0995 73.0148 13.9884 72.63 13.7661C72.2486 13.5406 71.95 13.2138 71.7344 12.7859C71.5187 12.3546 71.4109 11.8338 71.4109 11.2234V6.35696H73.2122V10.9448C73.2122 11.4291 73.3449 11.8139 73.6103 12.0992C73.8757 12.3845 74.224 12.5271 74.6552 12.5271C74.9206 12.5271 75.1777 12.4624 75.4265 12.3331C75.6753 12.2037 75.8793 12.0113 76.0386 11.7559C76.2011 11.4971 76.2824 11.1737 76.2824 10.7855ZM79.936 14V6.35696H81.6825V7.6308H81.7621C81.9015 7.1896 82.1403 6.84958 82.4787 6.61073C82.8203 6.36857 83.2101 6.24749 83.648 6.24749C83.7475 6.24749 83.8587 6.25246 83.9814 6.26242C84.1075 6.26905 84.212 6.28066 84.2949 6.29725V7.95423C84.2186 7.9277 84.0975 7.90448 83.9316 7.88457C83.7691 7.86135 83.6115 7.84974 83.4589 7.84974C83.1305 7.84974 82.8353 7.92106 82.5732 8.06371C82.3145 8.20303 82.1104 8.39709 81.9612 8.64589C81.8119 8.89469 81.7373 9.18163 81.7373 9.50673V14H79.936ZM88.5107 14.1493C87.7478 14.1493 87.0926 13.9818 86.5453 13.6467C86.0012 13.3117 85.5816 12.8489 85.2863 12.2584C84.9944 11.6646 84.8485 10.9813 84.8485 10.2083C84.8485 9.43209 84.9977 8.74707 85.2963 8.15327C85.5948 7.55616 86.0161 7.09174 86.5602 6.76001C87.1075 6.42496 87.7544 6.25744 88.5008 6.25744C89.1211 6.25744 89.6701 6.37189 90.1478 6.60078C90.6288 6.82636 91.012 7.14647 91.2973 7.56114C91.5826 7.97248 91.7451 8.45349 91.7849 9.00416H90.0632C89.9936 8.63594 89.8277 8.32909 89.5656 8.08361C89.3069 7.83481 88.9602 7.71041 88.5257 7.71041C88.1575 7.71041 87.834 7.80993 87.5554 8.00897C87.2767 8.20469 87.0594 8.48666 86.9035 8.85488C86.7509 9.2231 86.6746 9.6643 86.6746 10.1785C86.6746 10.6993 86.7509 11.1471 86.9035 11.522C87.0561 11.8935 87.2701 12.1805 87.5454 12.3828C87.8241 12.5819 88.1508 12.6814 88.5257 12.6814C88.7911 12.6814 89.0282 12.6316 89.2372 12.5321C89.4495 12.4293 89.627 12.2816 89.7697 12.0892C89.9123 11.8968 90.0102 11.663 90.0632 11.3876H91.7849C91.7418 11.9284 91.5826 12.4077 91.3072 12.8257C91.0319 13.2403 90.657 13.5654 90.1827 13.801C89.7083 14.0332 89.151 14.1493 88.5107 14.1493ZM96.6476 14.1493C95.8814 14.1493 95.2196 13.99 94.6622 13.6716C94.1083 13.3498 93.682 12.8953 93.3834 12.3082C93.0849 11.7177 92.9356 11.0227 92.9356 10.2233C92.9356 9.43706 93.0849 8.74707 93.3834 8.15327C93.6853 7.55616 94.1066 7.09174 94.6473 6.76001C95.188 6.42496 95.8233 6.25744 96.5531 6.25744C97.0242 6.25744 97.4687 6.33374 97.8867 6.48633C98.308 6.63561 98.6795 6.86782 99.0013 7.18296C99.3264 7.49811 99.5818 7.8995 99.7676 8.38714C99.9533 8.87147 100.046 9.44867 100.046 10.1188V10.6711H93.7815V9.45697H98.3196C98.3162 9.11197 98.2416 8.80512 98.0956 8.53642C97.9497 8.2644 97.7457 8.05044 97.4836 7.89452C97.2249 7.73861 96.923 7.66065 96.578 7.66065C96.2098 7.66065 95.8863 7.75022 95.6077 7.92935C95.329 8.10517 95.1117 8.33738 94.9558 8.62599C94.8032 8.91127 94.7253 9.22476 94.722 9.56644V10.6263C94.722 11.0708 94.8032 11.4523 94.9658 11.7708C95.1283 12.0859 95.3556 12.3281 95.6475 12.4973C95.9394 12.6631 96.2811 12.7461 96.6725 12.7461C96.9346 12.7461 97.1718 12.7096 97.3841 12.6366C97.5964 12.5603 97.7805 12.4492 97.9364 12.3032C98.0923 12.1572 98.2101 11.9765 98.2897 11.7608L99.9716 11.9499C99.8654 12.3944 99.6631 12.7826 99.3645 13.1143C99.0693 13.4427 98.6911 13.6981 98.23 13.8806C97.7689 14.0597 97.2414 14.1493 96.6476 14.1493Z" fill="black"/>
<path d="M8.05979 24.8757V19.7804H9.87601C10.2724 19.7804 10.6008 19.8525 10.8612 19.9968C11.1217 20.1411 11.3165 20.3385 11.4459 20.589C11.5753 20.8378 11.64 21.1181 11.64 21.4299C11.64 21.7434 11.5745 22.0253 11.4434 22.2758C11.3141 22.5246 11.1183 22.722 10.8563 22.8679C10.5959 23.0122 10.2683 23.0844 9.87352 23.0844H8.62456V22.4325H9.80386C10.0543 22.4325 10.2575 22.3894 10.4134 22.3032C10.5693 22.2153 10.6838 22.0958 10.7568 21.9449C10.8297 21.794 10.8662 21.6223 10.8662 21.4299C10.8662 21.2375 10.8297 21.0667 10.7568 20.9174C10.6838 20.7681 10.5685 20.6512 10.4109 20.5666C10.255 20.482 10.0493 20.4397 9.79391 20.4397H8.82858V24.8757H8.05979ZM21.3462 22.3281C21.3462 22.8721 21.2467 23.3398 21.0476 23.7313C20.8486 24.121 20.5757 24.4213 20.2291 24.6319C19.8841 24.8409 19.4918 24.9454 19.0523 24.9454C18.6111 24.9454 18.2171 24.8409 17.8705 24.6319C17.5255 24.4213 17.2535 24.1202 17.0544 23.7288C16.8554 23.3373 16.7559 22.8704 16.7559 22.3281C16.7559 21.784 16.8554 21.3171 17.0544 20.9273C17.2535 20.5359 17.5255 20.2357 17.8705 20.0267C18.2171 19.816 18.6111 19.7107 19.0523 19.7107C19.4918 19.7107 19.8841 19.816 20.2291 20.0267C20.5757 20.2357 20.8486 20.5359 21.0476 20.9273C21.2467 21.3171 21.3462 21.784 21.3462 22.3281ZM20.5849 22.3281C20.5849 21.9134 20.5177 21.5642 20.3833 21.2806C20.2506 20.9953 20.0682 20.7797 19.836 20.6337C19.6054 20.4861 19.3442 20.4123 19.0523 20.4123C18.7587 20.4123 18.4966 20.4861 18.2661 20.6337C18.0355 20.7797 17.8531 20.9953 17.7187 21.2806C17.586 21.5642 17.5197 21.9134 17.5197 22.3281C17.5197 22.7427 17.586 23.0927 17.7187 23.378C17.8531 23.6616 18.0355 23.8772 18.2661 24.0248C18.4966 24.1708 18.7587 24.2438 19.0523 24.2438C19.3442 24.2438 19.6054 24.1708 19.836 24.0248C20.0682 23.8772 20.2506 23.6616 20.3833 23.378C20.5177 23.0927 20.5849 22.7427 20.5849 22.3281ZM27.6196 24.8757L26.2064 19.7804H27.015L28.0077 23.7263H28.055L29.0875 19.7804H29.8886L30.9211 23.7288H30.9684L31.9586 19.7804H32.7697L31.354 24.8757H30.5803L29.508 21.0592H29.4681L28.3958 24.8757H27.6196ZM37.8495 24.8757V19.7804H41.044V20.4422H38.6183V21.9947H40.8774V22.654H38.6183V24.2139H41.0739V24.8757H37.8495ZM46.4498 24.8757V19.7804H48.266C48.6608 19.7804 48.9883 19.8484 49.2487 19.9844C49.5108 20.1204 49.7065 20.3087 49.8359 20.5492C49.9653 20.788 50.03 21.0642 50.03 21.3776C50.03 21.6895 49.9644 21.964 49.8334 22.2012C49.704 22.4367 49.5083 22.62 49.2463 22.751C48.9858 22.882 48.6583 22.9476 48.2635 22.9476H46.8877V22.2858H48.1938C48.4426 22.2858 48.645 22.2501 48.8009 22.1788C48.9585 22.1075 49.0738 22.0038 49.1467 21.8678C49.2197 21.7318 49.2562 21.5684 49.2562 21.3776C49.2562 21.1852 49.2189 21.0186 49.1442 20.8776C49.0713 20.7366 48.956 20.6288 48.7984 20.5541C48.6425 20.4778 48.4377 20.4397 48.1839 20.4397H47.2186V24.8757H46.4498ZM48.9651 22.5768L50.224 24.8757H49.3483L48.1142 22.5768H48.9651ZM56.9938 24.8757H55.3443V19.7804H57.046C57.5453 19.7804 57.9741 19.8824 58.3323 20.0864C58.6906 20.2887 58.9651 20.5798 59.1558 20.9597C59.3482 21.3378 59.4444 21.7915 59.4444 22.3206C59.4444 22.8514 59.3474 23.3075 59.1534 23.689C58.9609 24.0705 58.6823 24.364 58.3174 24.5697C57.9525 24.7737 57.5113 24.8757 56.9938 24.8757ZM56.1131 24.204H56.9515C57.3396 24.204 57.6622 24.131 57.9193 23.985C58.1764 23.8374 58.3688 23.6243 58.4965 23.3456C58.6242 23.0653 58.6881 22.7236 58.6881 22.3206C58.6881 21.9209 58.6242 21.5817 58.4965 21.303C58.3705 21.0244 58.1822 20.8129 57.9318 20.6686C57.6813 20.5243 57.3703 20.4521 56.9988 20.4521H56.1131V24.204ZM68.385 24.8757V19.7804H70.2509C70.6125 19.7804 70.9119 19.8401 71.1491 19.9595C71.3863 20.0773 71.5638 20.2373 71.6815 20.4397C71.7993 20.6404 71.8582 20.8668 71.8582 21.1189C71.8582 21.3312 71.8192 21.5103 71.7412 21.6563C71.6633 21.8006 71.5588 21.9167 71.4277 22.0046C71.2984 22.0909 71.1557 22.1539 70.9998 22.1937V22.2435C71.169 22.2518 71.334 22.3065 71.4949 22.4077C71.6575 22.5072 71.7918 22.649 71.898 22.8331C72.0041 23.0172 72.0572 23.2411 72.0572 23.5049C72.0572 23.7653 71.9958 23.9991 71.8731 24.2065C71.752 24.4121 71.5646 24.5755 71.3108 24.6966C71.057 24.816 70.7328 24.8757 70.338 24.8757H68.385ZM69.1537 24.2164H70.2634C70.6316 24.2164 70.8953 24.1451 71.0545 24.0025C71.2138 23.8598 71.2934 23.6815 71.2934 23.4675C71.2934 23.3067 71.2528 23.159 71.1715 23.0247C71.0902 22.8903 70.9741 22.7834 70.8232 22.7037C70.6739 22.6241 70.4964 22.5843 70.2907 22.5843H69.1537V24.2164ZM69.1537 21.9847H70.1838C70.3563 21.9847 70.5113 21.9515 70.649 21.8852C70.7883 21.8188 70.8986 21.726 70.9799 21.6065C71.0628 21.4855 71.1043 21.3428 71.1043 21.1786C71.1043 20.968 71.0305 20.7913 70.8829 20.6487C70.7353 20.506 70.5089 20.4347 70.2037 20.4347H69.1537V21.9847ZM74.3275 19.7804H75.2008L76.5318 22.0967H76.5866L77.9176 19.7804H78.7909L76.9423 22.8754V24.8757H76.176V22.8754L74.3275 19.7804ZM85.3044 24.8757H84.4883L86.322 19.7804H87.2102L89.0438 24.8757H88.2278L86.7872 20.7059H86.7474L85.3044 24.8757ZM85.4412 22.8804H88.0884V23.5273H85.4412V22.8804ZM92.2999 19.7804V24.8757H91.5312V19.7804H92.2999Z" fill="black"/>
</svg>
