<svg width="105" height="65" viewBox="0 0 105 65" fill="none" xmlns="http://www.w3.org/2000/svg">
<g clip-path="url(#clip0_108_281)">
<path d="M101.245 24.1511L80.4272 3.33319C75.9864 -1.10761 68.7865 -1.1076 64.3457 3.33319L43.5278 24.1511C39.087 28.5919 39.087 35.7918 43.5278 40.2326L64.3457 61.0505C68.7865 65.4913 75.9864 65.4913 80.4272 61.0505L101.245 40.2326C105.686 35.7918 105.686 28.5919 101.245 24.1511Z" fill="#004CE0"/>
<path d="M61.5254 24.1491L40.7075 3.33124C36.2667 -1.10956 29.0668 -1.10956 24.626 3.33124L3.80809 24.1491C-0.632709 28.5899 -0.632707 35.7899 3.80809 40.2307L24.626 61.0486C29.0668 65.4894 36.2667 65.4894 40.7075 61.0486L61.5254 40.2307C65.9662 35.7899 65.9662 28.5899 61.5254 24.1491Z" fill="#590595"/>
<path d="M61.5235 24.1486L52.5276 15.1527L43.5318 24.1486C39.0923 28.5881 39.0923 35.7886 43.5318 40.232L52.5276 49.2279L61.5235 40.232C65.963 35.7925 65.963 28.592 61.5235 24.1486Z" fill="#00D8FE"/>
</g>
<defs>
<clipPath id="clip0_108_281">
<rect width="104.099" height="64.3767" fill="white" transform="translate(0.476562 3.05176e-05)"/>
</clipPath>
</defs>
</svg>
