<svg width="347" height="192" viewBox="0 0 347 192" fill="none" xmlns="http://www.w3.org/2000/svg">
<g opacity="0.18">
<g clip-path="url(#clip0_775_280)">
<path d="M250.906 38.567L217.662 5.32278C210.571 -1.76875 199.073 -1.76875 191.981 5.32278L158.737 38.567C151.646 45.6585 151.646 57.1562 158.737 64.2477L191.981 97.492C199.073 104.584 210.571 104.584 217.662 97.492L250.906 64.2477C257.998 57.1562 257.998 45.6585 250.906 38.567Z" fill="#edebeb"/>
<path d="M187.477 38.5638L154.233 5.31961C147.142 -1.77193 135.644 -1.77193 128.552 5.31961L95.3082 38.5638C88.2167 45.6554 88.2167 57.153 95.3082 64.2446L128.552 97.4888C135.644 104.58 147.142 104.58 154.233 97.4888L187.477 64.2446C194.569 57.153 194.569 45.6554 187.477 38.5638Z" fill="#edebeb"/>
<path d="M187.474 38.5629L173.109 24.1974L158.743 38.5629C151.654 45.6524 151.654 57.151 158.743 64.2467L173.109 78.6123L187.474 64.2467C194.564 57.1572 194.564 45.6586 187.474 38.5629Z" fill="#edebeb"/>
</g>
<path d="M4.53473 114.041H12.241L22.5613 139.23H22.9687L33.2889 114.041H40.9952V148.804H34.9524V124.921H34.6299L25.0225 148.702H20.5074L10.9 124.87H10.5775V148.804H4.53473V114.041ZM51.4003 158.581C50.5629 158.581 49.7878 158.513 49.0749 158.377C48.3733 158.253 47.8131 158.106 47.3944 157.936L48.8203 153.149C49.7142 153.409 50.512 153.534 51.2136 153.523C51.9152 153.511 52.5319 153.291 53.0638 152.861C53.607 152.442 54.0653 151.74 54.4387 150.756L54.9649 149.347L45.5103 122.731H52.0284L58.0372 142.421H58.3088L64.3346 122.731H70.8697L60.4306 151.961C59.944 153.341 59.299 154.524 58.4955 155.508C57.6921 156.504 56.7076 157.262 55.542 157.783C54.3878 158.315 53.0072 158.581 51.4003 158.581ZM75.3933 148.804V114.041H88.4294C91.1 114.041 93.3406 114.539 95.1512 115.534C96.9731 116.53 98.348 117.899 99.2759 119.642C100.215 121.373 100.685 123.342 100.685 125.549C100.685 127.778 100.215 129.759 99.2759 131.49C98.3367 133.221 96.9504 134.585 95.1172 135.581C93.284 136.565 91.0265 137.058 88.3446 137.058H79.7047V131.88H87.4958C89.0575 131.88 90.3362 131.609 91.332 131.066C92.3278 130.523 93.0634 129.776 93.5386 128.825C94.0252 127.875 94.2685 126.783 94.2685 125.549C94.2685 124.316 94.0252 123.229 93.5386 122.29C93.0634 121.351 92.3222 120.621 91.315 120.1C90.3192 119.569 89.0348 119.303 87.4619 119.303H81.6907V148.804H75.3933ZM105.883 148.804V122.731H111.841V127.077H112.113C112.588 125.572 113.403 124.412 114.557 123.597C115.722 122.771 117.052 122.358 118.546 122.358C118.885 122.358 119.264 122.375 119.683 122.409C120.113 122.432 120.47 122.471 120.752 122.528V128.18C120.492 128.09 120.079 128.01 119.513 127.942C118.959 127.863 118.421 127.824 117.901 127.824C116.78 127.824 115.773 128.067 114.879 128.554C113.997 129.029 113.301 129.691 112.792 130.54C112.282 131.388 112.028 132.367 112.028 133.476V148.804H105.883ZM124.835 148.804V122.731H130.979V148.804H124.835ZM127.924 119.031C126.951 119.031 126.113 118.709 125.412 118.064C124.71 117.407 124.359 116.621 124.359 115.704C124.359 114.776 124.71 113.99 125.412 113.345C126.113 112.688 126.951 112.36 127.924 112.36C128.909 112.36 129.746 112.688 130.436 113.345C131.138 113.99 131.489 114.776 131.489 115.704C131.489 116.621 131.138 117.407 130.436 118.064C129.746 118.709 128.909 119.031 127.924 119.031ZM143.443 133.527V148.804H137.298V122.731H143.171V127.162H143.477C144.076 125.702 145.033 124.542 146.345 123.682C147.669 122.822 149.304 122.392 151.251 122.392C153.05 122.392 154.617 122.777 155.953 123.546C157.299 124.316 158.34 125.43 159.076 126.89C159.823 128.35 160.19 130.121 160.179 132.203V148.804H154.034V133.154C154.034 131.411 153.582 130.047 152.677 129.063C151.783 128.078 150.543 127.586 148.959 127.586C147.884 127.586 146.928 127.824 146.091 128.299C145.264 128.763 144.614 129.436 144.139 130.319C143.675 131.202 143.443 132.271 143.443 133.527ZM179.445 122.731V127.484H164.457V122.731H179.445ZM168.157 116.485H174.302V140.962C174.302 141.788 174.426 142.421 174.675 142.863C174.935 143.293 175.275 143.587 175.693 143.745C176.112 143.904 176.576 143.983 177.085 143.983C177.47 143.983 177.821 143.955 178.138 143.898C178.466 143.842 178.715 143.791 178.885 143.745L179.92 148.549C179.592 148.662 179.122 148.787 178.511 148.923C177.911 149.058 177.176 149.138 176.305 149.16C174.766 149.205 173.379 148.973 172.146 148.464C170.912 147.944 169.934 147.14 169.209 146.054C168.496 144.968 168.146 143.61 168.157 141.98V116.485ZM203.747 123.597C203.589 122.115 202.921 120.96 201.745 120.134C200.579 119.308 199.063 118.895 197.195 118.895C195.883 118.895 194.757 119.093 193.818 119.489C192.878 119.885 192.16 120.423 191.662 121.102C191.164 121.781 190.909 122.556 190.898 123.427C190.898 124.152 191.062 124.78 191.39 125.312C191.73 125.843 192.188 126.296 192.765 126.669C193.342 127.032 193.982 127.337 194.683 127.586C195.385 127.835 196.092 128.044 196.805 128.214L200.064 129.029C201.377 129.334 202.639 129.747 203.849 130.268C205.071 130.788 206.163 131.445 207.125 132.237C208.099 133.029 208.868 133.985 209.434 135.106C210 136.226 210.283 137.539 210.283 139.044C210.283 141.08 209.762 142.874 208.721 144.424C207.68 145.963 206.175 147.169 204.206 148.04C202.248 148.9 199.877 149.33 197.094 149.33C194.389 149.33 192.041 148.911 190.049 148.074C188.069 147.236 186.519 146.014 185.398 144.407C184.289 142.801 183.69 140.843 183.599 138.534H189.795C189.885 139.745 190.259 140.752 190.915 141.556C191.571 142.359 192.426 142.959 193.478 143.355C194.542 143.751 195.73 143.949 197.043 143.949C198.412 143.949 199.611 143.745 200.641 143.338C201.682 142.919 202.497 142.342 203.085 141.607C203.674 140.86 203.974 139.988 203.985 138.993C203.974 138.087 203.708 137.341 203.187 136.752C202.667 136.152 201.937 135.654 200.998 135.258C200.07 134.851 198.983 134.489 197.739 134.172L193.784 133.154C190.921 132.418 188.657 131.303 186.994 129.81C185.342 128.305 184.516 126.307 184.516 123.818C184.516 121.77 185.07 119.976 186.179 118.437C187.3 116.898 188.822 115.704 190.745 114.855C192.669 113.995 194.847 113.565 197.28 113.565C199.747 113.565 201.909 113.995 203.764 114.855C205.632 115.704 207.097 116.887 208.161 118.403C209.224 119.908 209.773 121.639 209.807 123.597H203.747ZM226.998 149.313C224.452 149.313 222.245 148.753 220.378 147.632C218.511 146.512 217.062 144.945 216.033 142.931C215.014 140.916 214.505 138.563 214.505 135.869C214.505 133.176 215.014 130.817 216.033 128.791C217.062 126.766 218.511 125.193 220.378 124.072C222.245 122.952 224.452 122.392 226.998 122.392C229.544 122.392 231.751 122.952 233.618 124.072C235.485 125.193 236.928 126.766 237.946 128.791C238.976 130.817 239.491 133.176 239.491 135.869C239.491 138.563 238.976 140.916 237.946 142.931C236.928 144.945 235.485 146.512 233.618 147.632C231.751 148.753 229.544 149.313 226.998 149.313ZM227.032 144.39C228.412 144.39 229.567 144.011 230.494 143.253C231.422 142.484 232.113 141.454 232.565 140.164C233.029 138.874 233.261 137.437 233.261 135.852C233.261 134.257 233.029 132.814 232.565 131.524C232.113 130.223 231.422 129.187 230.494 128.418C229.567 127.648 228.412 127.264 227.032 127.264C225.617 127.264 224.44 127.648 223.501 128.418C222.573 129.187 221.877 130.223 221.413 131.524C220.961 132.814 220.734 134.257 220.734 135.852C220.734 137.437 220.961 138.874 221.413 140.164C221.877 141.454 222.573 142.484 223.501 143.253C224.44 144.011 225.617 144.39 227.032 144.39ZM261.324 137.838V122.731H267.468V148.804H261.51V144.17H261.239C260.65 145.63 259.683 146.823 258.336 147.751C257.001 148.679 255.355 149.143 253.397 149.143C251.688 149.143 250.177 148.764 248.865 148.006C247.563 147.236 246.545 146.122 245.809 144.662C245.074 143.191 244.706 141.414 244.706 139.332V122.731H250.851V138.382C250.851 140.034 251.303 141.346 252.209 142.32C253.114 143.293 254.302 143.779 255.773 143.779C256.679 143.779 257.556 143.559 258.404 143.117C259.253 142.676 259.949 142.02 260.492 141.148C261.047 140.266 261.324 139.162 261.324 137.838ZM273.787 148.804V122.731H279.745V127.077H280.017C280.492 125.572 281.307 124.412 282.461 123.597C283.626 122.771 284.956 122.358 286.45 122.358C286.789 122.358 287.168 122.375 287.587 122.409C288.017 122.432 288.373 122.471 288.656 122.528V128.18C288.396 128.09 287.983 128.01 287.417 127.942C286.863 127.863 286.325 127.824 285.805 127.824C284.684 127.824 283.677 128.067 282.783 128.554C281.901 129.029 281.205 129.691 280.696 130.54C280.186 131.388 279.932 132.367 279.932 133.476V148.804H273.787ZM303.038 149.313C300.435 149.313 298.2 148.741 296.333 147.599C294.477 146.456 293.046 144.877 292.038 142.863C291.043 140.837 290.545 138.506 290.545 135.869C290.545 133.221 291.054 130.885 292.072 128.859C293.091 126.822 294.528 125.238 296.384 124.106C298.251 122.963 300.458 122.392 303.004 122.392C305.12 122.392 306.993 122.782 308.622 123.563C310.263 124.333 311.57 125.425 312.543 126.839C313.516 128.242 314.071 129.883 314.207 131.762H308.334C308.096 130.506 307.53 129.459 306.636 128.621C305.754 127.773 304.571 127.348 303.089 127.348C301.833 127.348 300.729 127.688 299.779 128.367C298.828 129.034 298.087 129.996 297.555 131.252C297.035 132.509 296.774 134.014 296.774 135.768C296.774 137.544 297.035 139.072 297.555 140.351C298.076 141.618 298.805 142.597 299.745 143.287C300.695 143.966 301.81 144.306 303.089 144.306C303.994 144.306 304.803 144.136 305.516 143.796C306.24 143.446 306.846 142.942 307.332 142.286C307.819 141.629 308.153 140.832 308.334 139.892H314.207C314.06 141.737 313.516 143.372 312.577 144.798C311.638 146.212 310.359 147.321 308.741 148.125C307.123 148.917 305.222 149.313 303.038 149.313ZM330.795 149.313C328.181 149.313 325.923 148.77 324.022 147.683C322.132 146.586 320.678 145.035 319.66 143.033C318.641 141.018 318.132 138.648 318.132 135.92C318.132 133.238 318.641 130.885 319.66 128.859C320.689 126.822 322.127 125.238 323.971 124.106C325.816 122.963 327.983 122.392 330.472 122.392C332.079 122.392 333.595 122.652 335.021 123.173C336.458 123.682 337.726 124.474 338.823 125.549C339.932 126.624 340.804 127.993 341.437 129.657C342.071 131.309 342.388 133.278 342.388 135.564V137.448H321.018V133.306H336.498C336.487 132.129 336.232 131.083 335.734 130.166C335.236 129.238 334.54 128.508 333.646 127.976C332.764 127.445 331.734 127.179 330.557 127.179C329.301 127.179 328.198 127.484 327.247 128.095C326.297 128.695 325.555 129.487 325.023 130.472C324.503 131.445 324.237 132.514 324.226 133.68V137.295C324.226 138.812 324.503 140.113 325.057 141.199C325.612 142.274 326.387 143.1 327.383 143.678C328.379 144.243 329.544 144.526 330.88 144.526C331.774 144.526 332.583 144.402 333.307 144.153C334.031 143.893 334.659 143.513 335.191 143.016C335.723 142.518 336.125 141.901 336.396 141.165L342.133 141.81C341.771 143.327 341.081 144.651 340.063 145.782C339.055 146.903 337.765 147.774 336.192 148.396C334.62 149.007 332.82 149.313 330.795 149.313Z" fill="#edebeb"/>
<path d="M28.6623 185.444V168.063H34.8578C36.2101 168.063 37.3304 168.309 38.2187 168.801C39.107 169.293 39.7719 169.967 40.2132 170.821C40.6545 171.67 40.8752 172.626 40.8752 173.689C40.8752 174.759 40.6517 175.721 40.2047 176.575C39.7634 177.424 39.0957 178.097 38.2017 178.595C37.3134 179.087 36.196 179.333 34.8494 179.333H30.5888V177.11H34.6117C35.4661 177.11 36.1592 176.963 36.691 176.668C37.2229 176.369 37.6133 175.961 37.8623 175.446C38.1112 174.931 38.2357 174.346 38.2357 173.689C38.2357 173.033 38.1112 172.45 37.8623 171.941C37.6133 171.432 37.2201 171.033 36.6826 170.744C36.1507 170.456 35.4491 170.312 34.5778 170.312H31.2848V185.444H28.6623ZM73.9854 176.753C73.9854 178.609 73.6459 180.205 72.9669 181.54C72.2879 182.87 71.3572 183.894 70.1747 184.612C68.9978 185.325 67.6597 185.682 66.1603 185.682C64.6552 185.682 63.3114 185.325 62.1289 184.612C60.952 183.894 60.0241 182.867 59.3452 181.532C58.6662 180.196 58.3267 178.604 58.3267 176.753C58.3267 174.897 58.6662 173.305 59.3452 171.975C60.0241 170.64 60.952 169.616 62.1289 168.903C63.3114 168.184 64.6552 167.825 66.1603 167.825C67.6597 167.825 68.9978 168.184 70.1747 168.903C71.3572 169.616 72.2879 170.64 72.9669 171.975C73.6459 173.305 73.9854 174.897 73.9854 176.753ZM71.3883 176.753C71.3883 175.339 71.1592 174.148 70.7009 173.18C70.2482 172.207 69.6258 171.472 68.8337 170.974C68.0472 170.47 67.1561 170.218 66.1603 170.218C65.1588 170.218 64.2648 170.47 63.4784 170.974C62.6919 171.472 62.0695 172.207 61.6112 173.18C61.1586 174.148 60.9322 175.339 60.9322 176.753C60.9322 178.168 61.1586 179.362 61.6112 180.335C62.0695 181.302 62.6919 182.038 63.4784 182.542C64.2648 183.039 65.1588 183.288 66.1603 183.288C67.1561 183.288 68.0472 183.039 68.8337 182.542C69.6258 182.038 70.2482 181.302 70.7009 180.335C71.1592 179.362 71.3883 178.168 71.3883 176.753ZM95.3855 185.444L90.5648 168.063H93.3231L96.7095 181.523H96.8707L100.393 168.063H103.126L106.648 181.532H106.809L110.187 168.063H112.954L108.125 185.444H105.485L101.827 172.425H101.691L98.0335 185.444H95.3855ZM130.282 185.444V168.063H141.18V170.32H132.905V175.616H140.611V177.865H132.905V183.187H141.281V185.444H130.282ZM159.62 185.444V168.063H165.815C167.162 168.063 168.28 168.295 169.168 168.759C170.062 169.222 170.729 169.865 171.171 170.685C171.612 171.5 171.833 172.442 171.833 173.511C171.833 174.575 171.609 175.511 171.162 176.32C170.721 177.124 170.053 177.749 169.159 178.196C168.271 178.643 167.154 178.867 165.807 178.867H161.114V176.609H165.569C166.418 176.609 167.108 176.487 167.64 176.244C168.178 176.001 168.571 175.647 168.82 175.183C169.069 174.719 169.193 174.162 169.193 173.511C169.193 172.855 169.066 172.286 168.811 171.805C168.562 171.324 168.169 170.957 167.632 170.702C167.1 170.442 166.401 170.312 165.535 170.312H162.242V185.444H159.62ZM168.2 177.602L172.495 185.444H169.507L165.298 177.602H168.2ZM195.588 185.444H189.961V168.063H195.766C197.469 168.063 198.932 168.411 200.154 169.106C201.376 169.797 202.313 170.79 202.963 172.085C203.62 173.375 203.948 174.923 203.948 176.728C203.948 178.538 203.617 180.094 202.955 181.396C202.299 182.697 201.348 183.699 200.103 184.4C198.858 185.096 197.353 185.444 195.588 185.444ZM192.584 183.153H195.444C196.768 183.153 197.868 182.904 198.745 182.406C199.622 181.902 200.279 181.175 200.714 180.225C201.15 179.268 201.368 178.103 201.368 176.728C201.368 175.364 201.15 174.207 200.714 173.257C200.284 172.306 199.642 171.585 198.788 171.092C197.933 170.6 196.872 170.354 195.605 170.354H192.584V183.153ZM234.446 185.444V168.063H240.811C242.045 168.063 243.066 168.266 243.875 168.674C244.684 169.075 245.29 169.621 245.692 170.312C246.093 170.996 246.294 171.769 246.294 172.629C246.294 173.353 246.161 173.964 245.895 174.462C245.629 174.954 245.273 175.35 244.826 175.65C244.384 175.944 243.898 176.159 243.366 176.295V176.465C243.943 176.493 244.506 176.68 245.055 177.025C245.609 177.364 246.068 177.848 246.43 178.476C246.792 179.104 246.973 179.868 246.973 180.768C246.973 181.656 246.764 182.454 246.345 183.161C245.932 183.863 245.293 184.42 244.427 184.833C243.561 185.24 242.455 185.444 241.108 185.444H234.446ZM237.069 183.195H240.854C242.11 183.195 243.01 182.952 243.553 182.465C244.096 181.979 244.368 181.37 244.368 180.64C244.368 180.092 244.229 179.588 243.952 179.13C243.674 178.671 243.278 178.306 242.763 178.035C242.254 177.763 241.649 177.628 240.947 177.628H237.069V183.195ZM237.069 175.582H240.582C241.171 175.582 241.7 175.469 242.169 175.243C242.645 175.016 243.021 174.699 243.298 174.292C243.581 173.879 243.723 173.392 243.723 172.832C243.723 172.114 243.471 171.511 242.967 171.025C242.464 170.538 241.691 170.295 240.65 170.295H237.069V175.582ZM254.717 168.063H257.696L262.237 175.964H262.424L266.964 168.063H269.943L263.637 178.62V185.444H261.023V178.62L254.717 168.063ZM292.162 185.444H289.379L295.634 168.063H298.664L304.919 185.444H302.135L297.221 171.22H297.085L292.162 185.444ZM292.629 178.637H301.659V180.844H292.629V178.637ZM316.026 168.063V185.444H313.403V168.063H316.026Z" fill="#edebeb"/>
</g>
<defs>
<clipPath id="clip0_775_280">
<rect width="166.236" height="102.804" fill="#edebeb" transform="translate(89.988)"/>
</clipPath>
</defs>
</svg>
